<svg id="visual" viewBox="0 0 540 960" width="540" height="960" xmlns="http://www.w3.org/2000/svg" xmlns:xlink="http://www.w3.org/1999/xlink" version="1.1"><rect x="0" y="0" width="540" height="960" fill="#FFFFFF"></rect><defs><linearGradient id="grad1_0" x1="0%" y1="100%" x2="100%" y2="0%"><stop offset="30%" stop-color="#16b1ba" stop-opacity="1"></stop><stop offset="70%" stop-color="#16b1ba" stop-opacity="1"></stop></linearGradient></defs><defs><linearGradient id="grad1_1" x1="0%" y1="100%" x2="100%" y2="0%"><stop offset="30%" stop-color="#16b1ba" stop-opacity="1"></stop><stop offset="70%" stop-color="#a2d8dc" stop-opacity="1"></stop></linearGradient></defs><defs><linearGradient id="grad1_2" x1="0%" y1="100%" x2="100%" y2="0%"><stop offset="30%" stop-color="#ffffff" stop-opacity="1"></stop><stop offset="70%" stop-color="#a2d8dc" stop-opacity="1"></stop></linearGradient></defs><defs><linearGradient id="grad2_0" x1="0%" y1="100%" x2="100%" y2="0%"><stop offset="30%" stop-color="#16b1ba" stop-opacity="1"></stop><stop offset="70%" stop-color="#16b1ba" stop-opacity="1"></stop></linearGradient></defs><defs><linearGradient id="grad2_1" x1="0%" y1="100%" x2="100%" y2="0%"><stop offset="30%" stop-color="#a2d8dc" stop-opacity="1"></stop><stop offset="70%" stop-color="#16b1ba" stop-opacity="1"></stop></linearGradient></defs><defs><linearGradient id="grad2_2" x1="0%" y1="100%" x2="100%" y2="0%"><stop offset="30%" stop-color="#a2d8dc" stop-opacity="1"></stop><stop offset="70%" stop-color="#ffffff" stop-opacity="1"></stop></linearGradient></defs><g transform="translate(540, 960)"><path d="M-270 0C-271 -21.4 -272 -42.8 -263.2 -60.1C-254.5 -77.4 -236.1 -90.7 -227 -109.3C-218 -128 -218.4 -152.1 -205.6 -164C-192.8 -175.9 -166.8 -175.5 -151.5 -190C-136.2 -204.4 -131.5 -233.6 -116.3 -241.5C-101 -249.3 -75.2 -235.7 -54.1 -236.9C-32.9 -238.1 -16.5 -254 0 -270L0 0Z" fill="#d1eced"></path><path d="M-180 0C-180.7 -14.3 -181.3 -28.5 -175.5 -40.1C-169.7 -51.6 -157.4 -60.4 -151.4 -72.9C-145.3 -85.3 -145.6 -101.4 -137.1 -109.3C-128.5 -117.2 -111.2 -117 -101 -126.7C-90.8 -136.3 -87.7 -155.8 -77.5 -161C-67.4 -166.2 -50.1 -157.1 -36 -157.9C-22 -158.7 -11 -169.4 0 -180L0 0Z" fill="#6dc5cb"></path><path d="M-90 0C-90.3 -7.1 -90.7 -14.3 -87.7 -20C-84.8 -25.8 -78.7 -30.2 -75.7 -36.4C-72.7 -42.7 -72.8 -50.7 -68.5 -54.7C-64.3 -58.6 -55.6 -58.5 -50.5 -63.3C-45.4 -68.1 -43.8 -77.9 -38.8 -80.5C-33.7 -83.1 -25.1 -78.6 -18 -79C-11 -79.4 -5.5 -84.7 0 -90L0 0Z" fill="#16b1ba"></path></g><g transform="translate(0, 0)"><path d="M270 0C275.4 23.4 280.8 46.8 263.2 60.1C245.7 73.4 205.3 76.7 194.6 93.7C183.9 110.8 203 141.6 198.6 158.4C194.1 175.2 166.2 178 145.9 182.9C125.6 187.9 113.1 195 100.2 208.1C87.4 221.2 74.2 240.2 57.4 251.5C40.7 262.8 20.3 266.4 0 270L0 0Z" fill="#d1eced"></path><path d="M180 0C183.6 15.6 187.2 31.2 175.5 40.1C163.8 48.9 136.9 51.1 129.7 62.5C122.6 73.8 135.4 94.4 132.4 105.6C129.4 116.8 110.8 118.7 97.3 122C83.8 125.3 75.4 130 66.8 138.7C58.2 147.5 49.4 160.2 38.3 167.7C27.1 175.2 13.6 177.6 0 180L0 0Z" fill="#6dc5cb"></path><path d="M90 0C91.8 7.8 93.6 15.6 87.7 20C81.9 24.5 68.4 25.6 64.9 31.2C61.3 36.9 67.7 47.2 66.2 52.8C64.7 58.4 55.4 59.3 48.6 61C41.9 62.6 37.7 65 33.4 69.4C29.1 73.7 24.7 80.1 19.1 83.8C13.6 87.6 6.8 88.8 0 90L0 0Z" fill="#16b1ba"></path></g></svg>